<svg xmlns="http://www.w3.org/2000/svg" width="1440" height="900"><path d="M737,425L842,530L874,419Z" fill="#f5fad5" stroke="#f5fad5" stroke-width="1.51"/><path d="M737,425L762,560L842,530Z" fill="#f1f9dd" stroke="#f1f9dd" stroke-width="1.51"/><path d="M842,530L941,526L874,419Z" fill="#e6f4e8" stroke="#e6f4e8" stroke-width="1.51"/><path d="M961,646L941,526L842,530Z" fill="#cfeaf3" stroke="#cfeaf3" stroke-width="1.51"/><path d="M762,560L815,681L842,530Z" fill="#d9eee9" stroke="#d9eee9" stroke-width="1.51"/><path d="M586,518L725,642L762,560Z" fill="#e8f1d4" stroke="#e8f1d4" stroke-width="1.51"/><path d="M725,642L815,681L762,560Z" fill="#d3eade" stroke="#d3eade" stroke-width="1.51"/><path d="M867,237L717,251L737,425Z" fill="#fcdda4" stroke="#fcdda4" stroke-width="1.51"/><path d="M737,425L586,518L762,560Z" fill="#f8f9cc" stroke="#f8f9cc" stroke-width="1.51"/><path d="M579,348L586,518L737,425Z" fill="#fff2ac" stroke="#fff2ac" stroke-width="1.51"/><path d="M874,419L867,237L737,425Z" fill="#f6ebbd" stroke="#f6ebbd" stroke-width="1.51"/><path d="M1003,299L867,237L874,419Z" fill="#ecd9b7" stroke="#ecd9b7" stroke-width="1.51"/><path d="M941,526L1017,343L874,419Z" fill="#e4eed3" stroke="#e4eed3" stroke-width="1.51"/><path d="M815,681L961,646L842,530Z" fill="#c8e6f1" stroke="#c8e6f1" stroke-width="1.51"/><path d="M941,526L1080,554L1017,343Z" fill="#d3eadc" stroke="#d3eadc" stroke-width="1.51"/><path d="M1017,343L1003,299L874,419Z" fill="#e2dfbe" stroke="#e2dfbe" stroke-width="1.51"/><path d="M717,251L579,348L737,425Z" fill="#ffe69b" stroke="#ffe69b" stroke-width="1.51"/><path d="M815,681L829,728L961,646Z" fill="#b5d8e9" stroke="#b5d8e9" stroke-width="1.51"/><path d="M725,642L829,728L815,681Z" fill="#c1dcdb" stroke="#c1dcdb" stroke-width="1.51"/><path d="M961,646L1080,554L941,526Z" fill="#bee2ee" stroke="#bee2ee" stroke-width="1.51"/><path d="M446,645L565,672L586,518Z" fill="#e2d7b8" stroke="#e2d7b8" stroke-width="1.51"/><path d="M717,251L569,259L579,348Z" fill="#ffd184" stroke="#ffd184" stroke-width="1.51"/><path d="M591,158L569,259L717,251Z" fill="#ffbd78" stroke="#ffbd78" stroke-width="1.51"/><path d="M586,518L565,672L725,642Z" fill="#e0e5c7" stroke="#e0e5c7" stroke-width="1.51"/><path d="M725,642L682,802L829,728Z" fill="#bbd2ce" stroke="#bbd2ce" stroke-width="1.51"/><path d="M439,393L586,518L579,348Z" fill="#ffe398" stroke="#ffe398" stroke-width="1.51"/><path d="M1017,343L1104,244L1003,299Z" fill="#d9c6a9" stroke="#d9c6a9" stroke-width="1.51"/><path d="M1080,554L1120,374L1017,343Z" fill="#ceddc9" stroke="#ceddc9" stroke-width="1.51"/><path d="M867,237L750,139L717,251Z" fill="#fdbf8f" stroke="#fdbf8f" stroke-width="1.51"/><path d="M831,131L750,139L867,237Z" fill="#f9b18f" stroke="#f9b18f" stroke-width="1.51"/><path d="M1020,102L831,131L867,237Z" fill="#eda895" stroke="#eda895" stroke-width="1.51"/><path d="M1020,102L867,237L1003,299Z" fill="#e7b59d" stroke="#e7b59d" stroke-width="1.51"/><path d="M565,672L682,802L725,642Z" fill="#c5d2c1" stroke="#c5d2c1" stroke-width="1.51"/><path d="M1120,374L1104,244L1017,343Z" fill="#d1c6ad" stroke="#d1c6ad" stroke-width="1.51"/><path d="M750,139L591,158L717,251Z" fill="#ffb67a" stroke="#ffb67a" stroke-width="1.51"/><path d="M447,257L579,348L569,259Z" fill="#ffc575" stroke="#ffc575" stroke-width="1.51"/><path d="M447,257L439,393L579,348Z" fill="#ffca7a" stroke="#ffca7a" stroke-width="1.51"/><path d="M439,393L434,492L586,518Z" fill="#fedf9e" stroke="#fedf9e" stroke-width="1.51"/><path d="M961,646L1136,680L1080,554Z" fill="#a3d1e5" stroke="#a3d1e5" stroke-width="1.51"/><path d="M829,728L1005,784L961,646Z" fill="#9fcae1" stroke="#9fcae1" stroke-width="1.51"/><path d="M879,904L1005,784L829,728Z" fill="#90b0d5" stroke="#90b0d5" stroke-width="1.51"/><path d="M565,672L565,769L682,802Z" fill="#bcbfb3" stroke="#bcbfb3" stroke-width="1.51"/><path d="M502,736L565,769L565,672Z" fill="#c2beac" stroke="#c2beac" stroke-width="1.51"/><path d="M1271,535L1245,373L1120,374Z" fill="#b8c4be" stroke="#b8c4be" stroke-width="1.51"/><path d="M1075,765L1136,680L961,646Z" fill="#8ec1dc" stroke="#8ec1dc" stroke-width="1.51"/><path d="M434,492L446,645L586,518Z" fill="#f2d9b4" stroke="#f2d9b4" stroke-width="1.51"/><path d="M1005,784L1075,765L961,646Z" fill="#8cbeda" stroke="#8cbeda" stroke-width="1.51"/><path d="M446,645L502,736L565,672Z" fill="#cfc2ab" stroke="#cfc2ab" stroke-width="1.51"/><path d="M501,129L447,257L569,259Z" fill="#fca863" stroke="#fca863" stroke-width="1.51"/><path d="M1104,244L1020,102L1003,299Z" fill="#daac98" stroke="#daac98" stroke-width="1.51"/><path d="M570,-22L591,158L750,139Z" fill="#f39762" stroke="#f39762" stroke-width="1.51"/><path d="M570,-22L501,129L591,158Z" fill="#ef8c55" stroke="#ef8c55" stroke-width="1.51"/><path d="M1104,244L1100,92L1020,102Z" fill="#d19389" stroke="#d19389" stroke-width="1.51"/><path d="M1120,374L1227,226L1104,244Z" fill="#c8b19e" stroke="#c8b19e" stroke-width="1.51"/><path d="M1271,535L1120,374L1080,554Z" fill="#b7d2d4" stroke="#b7d2d4" stroke-width="1.51"/><path d="M682,802L879,904L829,728Z" fill="#a1b3ca" stroke="#a1b3ca" stroke-width="1.51"/><path d="M1005,784L1071,911L1075,765Z" fill="#729cca" stroke="#729cca" stroke-width="1.51"/><path d="M690,945L879,904L682,802Z" fill="#a099b5" stroke="#a099b5" stroke-width="1.51"/><path d="M591,158L501,129L569,259Z" fill="#fca566" stroke="#fca566" stroke-width="1.51"/><path d="M719,-50L750,139L831,131Z" fill="#ed9b78" stroke="#ed9b78" stroke-width="1.51"/><path d="M434,492L362,603L446,645Z" fill="#ecc7a7" stroke="#ecc7a7" stroke-width="1.51"/><path d="M446,645L369,810L502,736Z" fill="#c5ab9a" stroke="#c5ab9a" stroke-width="1.51"/><path d="M439,393L352,497L434,492Z" fill="#ffd190" stroke="#ffd190" stroke-width="1.51"/><path d="M317,405L352,497L439,393Z" fill="#ffc784" stroke="#ffc784" stroke-width="1.51"/><path d="M1136,680L1271,535L1080,554Z" fill="#9bc7df" stroke="#9bc7df" stroke-width="1.51"/><path d="M1075,765L1203,688L1136,680Z" fill="#7ab1d3" stroke="#7ab1d3" stroke-width="1.51"/><path d="M1283,807L1203,688L1075,765Z" fill="#679bc8" stroke="#679bc8" stroke-width="1.51"/><path d="M352,497L362,603L434,492Z" fill="#f8c7a3" stroke="#f8c7a3" stroke-width="1.51"/><path d="M1203,688L1271,535L1136,680Z" fill="#87b7d8" stroke="#87b7d8" stroke-width="1.51"/><path d="M1020,102L886,-31L831,131Z" fill="#dd9287" stroke="#dd9287" stroke-width="1.51"/><path d="M1226,118L1100,92L1104,244Z" fill="#c68b85" stroke="#c68b85" stroke-width="1.51"/><path d="M565,769L633,901L682,802Z" fill="#aca8aa" stroke="#aca8aa" stroke-width="1.51"/><path d="M437,902L633,901L565,769Z" fill="#aa9199" stroke="#aa9199" stroke-width="1.51"/><path d="M437,902L565,769L502,736Z" fill="#b29e9a" stroke="#b29e9a" stroke-width="1.51"/><path d="M1245,373L1227,226L1120,374Z" fill="#bfb3a5" stroke="#bfb3a5" stroke-width="1.51"/><path d="M1226,118L1227,226L1413,155Z" fill="#b2717b" stroke="#b2717b" stroke-width="1.51"/><path d="M447,257L317,405L439,393Z" fill="#febe73" stroke="#febe73" stroke-width="1.51"/><path d="M352,497L189,550L362,603Z" fill="#f4b39c" stroke="#f4b39c" stroke-width="1.51"/><path d="M359,220L317,405L447,257Z" fill="#fca861" stroke="#fca861" stroke-width="1.51"/><path d="M975,-20L886,-31L1020,102Z" fill="#c78583" stroke="#c78583" stroke-width="1.51"/><path d="M633,901L690,945L682,802Z" fill="#a596a8" stroke="#a596a8" stroke-width="1.51"/><path d="M879,904L977,932L1005,784Z" fill="#8092c7" stroke="#8092c7" stroke-width="1.51"/><path d="M829,1032L977,932L879,904Z" fill="#898dc5" stroke="#898dc5" stroke-width="1.51"/><path d="M501,129L359,220L447,257Z" fill="#fb9756" stroke="#fb9756" stroke-width="1.51"/><path d="M1091,-21L975,-20L1020,102Z" fill="#bd7f80" stroke="#bd7f80" stroke-width="1.51"/><path d="M886,-31L719,-50L831,131Z" fill="#d98f7e" stroke="#d98f7e" stroke-width="1.51"/><path d="M501,129L317,121L359,220Z" fill="#f57f49" stroke="#f57f49" stroke-width="1.51"/><path d="M977,932L1071,911L1005,784Z" fill="#748cc2" stroke="#748cc2" stroke-width="1.51"/><path d="M719,-50L570,-22L750,139Z" fill="#df8f68" stroke="#df8f68" stroke-width="1.51"/><path d="M1227,226L1226,118L1104,244Z" fill="#c38f8a" stroke="#c38f8a" stroke-width="1.51"/><path d="M1100,92L1091,-21L1020,102Z" fill="#c27f7e" stroke="#c27f7e" stroke-width="1.51"/><path d="M1384,284L1227,226L1245,373Z" fill="#b39995" stroke="#b39995" stroke-width="1.51"/><path d="M570,-22L463,22L501,129Z" fill="#e17d4f" stroke="#e17d4f" stroke-width="1.51"/><path d="M1226,118L1091,-21L1100,92Z" fill="#b87679" stroke="#b87679" stroke-width="1.51"/><path d="M975,-20L969,-113L886,-31Z" fill="#c48484" stroke="#c48484" stroke-width="1.51"/><path d="M889,-155L681,-127L719,-50Z" fill="#d78e75" stroke="#d78e75" stroke-width="1.51"/><path d="M362,603L369,810L446,645Z" fill="#d1ae9a" stroke="#d1ae9a" stroke-width="1.51"/><path d="M633,901L614,1042L690,945Z" fill="#a38da2" stroke="#a38da2" stroke-width="1.51"/><path d="M206,683L369,810L362,603Z" fill="#ce9b8f" stroke="#ce9b8f" stroke-width="1.51"/><path d="M690,945L829,1032L879,904Z" fill="#9891bb" stroke="#9891bb" stroke-width="1.51"/><path d="M977,932L1008,1007L1071,911Z" fill="#7283be" stroke="#7283be" stroke-width="1.51"/><path d="M675,1069L829,1032L690,945Z" fill="#a194af" stroke="#a194af" stroke-width="1.51"/><path d="M369,810L437,902L502,736Z" fill="#b28f8e" stroke="#b28f8e" stroke-width="1.51"/><path d="M1271,535L1383,378L1245,373Z" fill="#acb3b6" stroke="#acb3b6" stroke-width="1.51"/><path d="M1381,560L1383,378L1271,535Z" fill="#9fa8c2" stroke="#9fa8c2" stroke-width="1.51"/><path d="M1367,644L1271,535L1203,688Z" fill="#80aad1" stroke="#80aad1" stroke-width="1.51"/><path d="M1367,644L1381,560L1271,535Z" fill="#89a2ce" stroke="#89a2ce" stroke-width="1.51"/><path d="M1071,911L1200,897L1075,765Z" fill="#6285be" stroke="#6285be" stroke-width="1.51"/><path d="M829,1032L1008,1007L977,932Z" fill="#818ac3" stroke="#818ac3" stroke-width="1.51"/><path d="M317,405L224,402L352,497Z" fill="#ffb87c" stroke="#ffb87c" stroke-width="1.51"/><path d="M181,239L224,402L317,405Z" fill="#f89e61" stroke="#f89e61" stroke-width="1.51"/><path d="M181,239L317,405L359,220Z" fill="#fa9356" stroke="#fa9356" stroke-width="1.51"/><path d="M1226,1019L1200,897L1071,911Z" fill="#556eb2" stroke="#556eb2" stroke-width="1.51"/><path d="M1200,897L1283,807L1075,765Z" fill="#5785bd" stroke="#5785bd" stroke-width="1.51"/><path d="M1363,771L1367,644L1203,688Z" fill="#6491c4" stroke="#6491c4" stroke-width="1.51"/><path d="M1091,-21L969,-113L975,-20Z" fill="#ba7e80" stroke="#ba7e80" stroke-width="1.51"/><path d="M719,-50L681,-127L570,-22Z" fill="#d88963" stroke="#d88963" stroke-width="1.51"/><path d="M463,22L317,121L501,129Z" fill="#ec7542" stroke="#ec7542" stroke-width="1.51"/><path d="M570,-22L437,-172L463,22Z" fill="#d4714b" stroke="#d4714b" stroke-width="1.51"/><path d="M463,22L320,19L317,121Z" fill="#df603c" stroke="#df603c" stroke-width="1.51"/><path d="M889,-155L719,-50L886,-31Z" fill="#d38b81" stroke="#d38b81" stroke-width="1.51"/><path d="M1383,378L1384,284L1245,373Z" fill="#ac9a9d" stroke="#ac9a9d" stroke-width="1.51"/><path d="M437,902L614,1042L633,901Z" fill="#a48395" stroke="#a48395" stroke-width="1.51"/><path d="M969,-113L889,-155L886,-31Z" fill="#c98685" stroke="#c98685" stroke-width="1.51"/><path d="M614,1042L675,1069L690,945Z" fill="#a38ea4" stroke="#a38ea4" stroke-width="1.51"/><path d="M829,1032L1089,1060L1008,1007Z" fill="#7a87c1" stroke="#7a87c1" stroke-width="1.51"/><path d="M224,402L189,550L352,497Z" fill="#fab085" stroke="#fab085" stroke-width="1.51"/><path d="M681,-127L636,-145L570,-22Z" fill="#d8865f" stroke="#d8865f" stroke-width="1.51"/><path d="M889,-155L636,-145L681,-127Z" fill="#d98f70" stroke="#d98f70" stroke-width="1.51"/><path d="M1283,807L1363,771L1203,688Z" fill="#5788bf" stroke="#5788bf" stroke-width="1.51"/><path d="M1526,491L1484,418L1381,560Z" fill="#9a92b8" stroke="#9a92b8" stroke-width="1.51"/><path d="M1412,947L1363,771L1283,807Z" fill="#405da9" stroke="#405da9" stroke-width="1.51"/><path d="M189,550L206,683L362,603Z" fill="#e2a392" stroke="#e2a392" stroke-width="1.51"/><path d="M369,810L291,871L437,902Z" fill="#ac6f7f" stroke="#ac6f7f" stroke-width="1.51"/><path d="M1091,-21L1109,-116L969,-113Z" fill="#b3787d" stroke="#b3787d" stroke-width="1.51"/><path d="M969,-113L1109,-116L889,-155Z" fill="#be8082" stroke="#be8082" stroke-width="1.51"/><path d="M1282,-1L1109,-116L1091,-21Z" fill="#a26976" stroke="#a26976" stroke-width="1.51"/><path d="M1282,-1L1091,-21L1226,118Z" fill="#a66673" stroke="#a66673" stroke-width="1.51"/><path d="M317,-102L320,19L463,22Z" fill="#d0573c" stroke="#d0573c" stroke-width="1.51"/><path d="M317,121L181,239L359,220Z" fill="#f57245" stroke="#f57245" stroke-width="1.51"/><path d="M437,902L439,1028L614,1042Z" fill="#a6788b" stroke="#a6788b" stroke-width="1.51"/><path d="M206,683L291,871L369,810Z" fill="#b87a80" stroke="#b87a80" stroke-width="1.51"/><path d="M1339,24L1282,-1L1226,118Z" fill="#9e576d" stroke="#9e576d" stroke-width="1.51"/><path d="M1200,897L1338,990L1283,807Z" fill="#425aa8" stroke="#425aa8" stroke-width="1.51"/><path d="M1008,1007L1089,1060L1071,911Z" fill="#6a7dbb" stroke="#6a7dbb" stroke-width="1.51"/><path d="M675,1069L1089,1060L829,1032Z" fill="#8e8fc7" stroke="#8e8fc7" stroke-width="1.51"/><path d="M224,402L93,511L189,550Z" fill="#f3a27d" stroke="#f3a27d" stroke-width="1.51"/><path d="M168,120L181,239L317,121Z" fill="#eb5b39" stroke="#eb5b39" stroke-width="1.51"/><path d="M374,1041L439,1028L437,902Z" fill="#a66a7f" stroke="#a66a7f" stroke-width="1.51"/><path d="M614,1042L439,1028L675,1069Z" fill="#a48697" stroke="#a48697" stroke-width="1.51"/><path d="M1383,378L1484,418L1384,284Z" fill="#a68b99" stroke="#a68b99" stroke-width="1.51"/><path d="M1384,284L1413,155L1227,226Z" fill="#af7681" stroke="#af7681" stroke-width="1.51"/><path d="M1381,560L1484,418L1383,378Z" fill="#a39ab0" stroke="#a39ab0" stroke-width="1.51"/><path d="M1507,607L1381,560L1367,644Z" fill="#7d8dc4" stroke="#7d8dc4" stroke-width="1.51"/><path d="M1535,219L1413,155L1384,284Z" fill="#a65c77" stroke="#a65c77" stroke-width="1.51"/><path d="M1413,155L1339,24L1226,118Z" fill="#a6566d" stroke="#a6566d" stroke-width="1.51"/><path d="M1282,-1L1263,-164L1109,-116Z" fill="#9a5d71" stroke="#9a5d71" stroke-width="1.51"/><path d="M291,871L374,1041L437,902Z" fill="#a66079" stroke="#a66079" stroke-width="1.51"/><path d="M163,775L245,874L291,871Z" fill="#aa5e73" stroke="#aa5e73" stroke-width="1.51"/><path d="M1089,1060L1226,1019L1071,911Z" fill="#5c73b5" stroke="#5c73b5" stroke-width="1.51"/><path d="M1507,764L1507,607L1367,644Z" fill="#677aba" stroke="#677aba" stroke-width="1.51"/><path d="M1507,764L1367,644L1363,771Z" fill="#5774b5" stroke="#5774b5" stroke-width="1.51"/><path d="M206,683L163,775L291,871Z" fill="#b6737a" stroke="#b6737a" stroke-width="1.51"/><path d="M189,550L50,652L206,683Z" fill="#d68f84" stroke="#d68f84" stroke-width="1.51"/><path d="M88,376L93,511L224,402Z" fill="#f29b6a" stroke="#f29b6a" stroke-width="1.51"/><path d="M84,758L163,775L206,683Z" fill="#ba7478" stroke="#ba7478" stroke-width="1.51"/><path d="M1484,418L1535,219L1384,284Z" fill="#a6788a" stroke="#a6788a" stroke-width="1.51"/><path d="M1507,607L1526,491L1381,560Z" fill="#8b8ec6" stroke="#8b8ec6" stroke-width="1.51"/><path d="M240,-12L168,120L317,121Z" fill="#dd4530" stroke="#dd4530" stroke-width="1.51"/><path d="M181,239L88,376L224,402Z" fill="#f18d56" stroke="#f18d56" stroke-width="1.51"/><path d="M53,246L88,376L181,239Z" fill="#e67747" stroke="#e67747" stroke-width="1.51"/><path d="M193,1018L291,871L245,874Z" fill="#a1466b" stroke="#a1466b" stroke-width="1.51"/><path d="M193,1018L374,1041L291,871Z" fill="#a54e70" stroke="#a54e70" stroke-width="1.51"/><path d="M439,1028L374,1041L675,1069Z" fill="#a6788b" stroke="#a6788b" stroke-width="1.51"/><path d="M636,-145L437,-172L570,-22Z" fill="#d57b53" stroke="#d57b53" stroke-width="1.51"/><path d="M320,19L240,-12L317,121Z" fill="#d84a35" stroke="#d84a35" stroke-width="1.51"/><path d="M889,-155L437,-172L636,-145Z" fill="#d88963" stroke="#d88963" stroke-width="1.51"/><path d="M317,-102L240,-12L320,19Z" fill="#cc4335" stroke="#cc4335" stroke-width="1.51"/><path d="M437,-172L317,-102L463,22Z" fill="#d1603f" stroke="#d1603f" stroke-width="1.51"/><path d="M1226,1019L1338,990L1200,897Z" fill="#455da9" stroke="#455da9" stroke-width="1.51"/><path d="M1518,1034L1338,990L1226,1019Z" fill="#38489e" stroke="#38489e" stroke-width="1.51"/><path d="M1507,607L1630,500L1526,491Z" fill="#9090c4" stroke="#9090c4" stroke-width="1.51"/><path d="M1485,907L1507,764L1363,771Z" fill="#3d54a4" stroke="#3d54a4" stroke-width="1.51"/><path d="M1413,155L1542,81L1339,24Z" fill="#993661" stroke="#993661" stroke-width="1.51"/><path d="M1629,268L1535,219L1484,418Z" fill="#a67688" stroke="#a67688" stroke-width="1.51"/><path d="M1341,-168L1282,-1L1339,24Z" fill="#8c4768" stroke="#8c4768" stroke-width="1.51"/><path d="M1341,-168L1263,-164L1282,-1Z" fill="#8e4d6a" stroke="#8e4d6a" stroke-width="1.51"/><path d="M1109,-116L1263,-164L889,-155Z" fill="#ae737b" stroke="#ae737b" stroke-width="1.51"/><path d="M889,-155L1263,-164L437,-172Z" fill="#d08a87" stroke="#d08a87" stroke-width="1.51"/><path d="M1338,990L1412,947L1283,807Z" fill="#3a4ba0" stroke="#3a4ba0" stroke-width="1.51"/><path d="M93,511L50,652L189,550Z" fill="#dd9287" stroke="#dd9287" stroke-width="1.51"/><path d="M74,928L193,1018L245,874Z" fill="#9b3963" stroke="#9b3963" stroke-width="1.51"/><path d="M-81,555L50,652L93,511Z" fill="#cc8886" stroke="#cc8886" stroke-width="1.51"/><path d="M50,652L84,758L206,683Z" fill="#be7b7b" stroke="#be7b7b" stroke-width="1.51"/><path d="M-102,382L-81,555L93,511Z" fill="#d78e77" stroke="#d78e77" stroke-width="1.51"/><path d="M168,120L53,246L181,239Z" fill="#e65a38" stroke="#e65a38" stroke-width="1.51"/><path d="M92,103L53,246L168,120Z" fill="#db4531" stroke="#db4531" stroke-width="1.51"/><path d="M56,2L92,103L168,120Z" fill="#cc2827" stroke="#cc2827" stroke-width="1.51"/><path d="M56,2L168,120L240,-12Z" fill="#c92828" stroke="#c92828" stroke-width="1.51"/><path d="M1412,947L1485,907L1363,771Z" fill="#37449b" stroke="#37449b" stroke-width="1.51"/><path d="M1518,1034L1485,907L1412,947Z" fill="#313695" stroke="#313695" stroke-width="1.51"/><path d="M1526,491L1664,352L1484,418Z" fill="#a390a6" stroke="#a390a6" stroke-width="1.51"/><path d="M1649,612L1630,500L1507,607Z" fill="#858bc4" stroke="#858bc4" stroke-width="1.51"/><path d="M1649,612L1507,607L1507,764Z" fill="#6a7dbb" stroke="#6a7dbb" stroke-width="1.51"/><path d="M1263,-164L1341,-168L437,-172Z" fill="#ba7e80" stroke="#ba7e80" stroke-width="1.51"/><path d="M1496,-105L1341,-168L1339,24Z" fill="#853461" stroke="#853461" stroke-width="1.51"/><path d="M1535,219L1542,81L1413,155Z" fill="#a1466b" stroke="#a1466b" stroke-width="1.51"/><path d="M1615,149L1542,81L1535,219Z" fill="#a0466b" stroke="#a0466b" stroke-width="1.51"/><path d="M74,928L245,874L163,775Z" fill="#a14a68" stroke="#a14a68" stroke-width="1.51"/><path d="M1664,352L1629,268L1484,418Z" fill="#a48294" stroke="#a48294" stroke-width="1.51"/><path d="M1630,500L1664,352L1526,491Z" fill="#a294ad" stroke="#a294ad" stroke-width="1.51"/><path d="M1657,762L1649,612L1507,764Z" fill="#5a72b4" stroke="#5a72b4" stroke-width="1.51"/><path d="M1746,488L1664,352L1630,500Z" fill="#a294ac" stroke="#a294ac" stroke-width="1.51"/><path d="M53,246L-33,256L88,376Z" fill="#da7148" stroke="#da7148" stroke-width="1.51"/><path d="M-68,103L-33,256L53,246Z" fill="#ce4b37" stroke="#ce4b37" stroke-width="1.51"/><path d="M1629,268L1615,149L1535,219Z" fill="#a65a76" stroke="#a65a76" stroke-width="1.51"/><path d="M1542,81L1523,-27L1339,24Z" fill="#872a5e" stroke="#872a5e" stroke-width="1.51"/><path d="M1668,30L1615,149L1766,131Z" fill="#9a3863" stroke="#9a3863" stroke-width="1.51"/><path d="M1668,30L1523,-27L1542,81Z" fill="#872a5e" stroke="#872a5e" stroke-width="1.51"/><path d="M-58,789L84,758L50,652Z" fill="#a56975" stroke="#a56975" stroke-width="1.51"/><path d="M-43,877L74,928L84,758Z" fill="#8e3f65" stroke="#8e3f65" stroke-width="1.51"/><path d="M84,758L74,928L163,775Z" fill="#a0546b" stroke="#a0546b" stroke-width="1.51"/><path d="M92,103L-68,103L53,246Z" fill="#cc3a30" stroke="#cc3a30" stroke-width="1.51"/><path d="M70,-110L56,2L240,-12Z" fill="#ba1927" stroke="#ba1927" stroke-width="1.51"/><path d="M161,-174L240,-12L317,-102Z" fill="#c73730" stroke="#c73730" stroke-width="1.51"/><path d="M1664,-161L1496,-105L1523,-27Z" fill="#80265d" stroke="#80265d" stroke-width="1.51"/><path d="M1523,-27L1496,-105L1339,24Z" fill="#80265d" stroke="#80265d" stroke-width="1.51"/><path d="M-102,382L93,511L88,376Z" fill="#de8e67" stroke="#de8e67" stroke-width="1.51"/><path d="M-81,555L-70,662L50,652Z" fill="#bc7f81" stroke="#bc7f81" stroke-width="1.51"/><path d="M1597,937L1657,762L1507,764Z" fill="#3c52a3" stroke="#3c52a3" stroke-width="1.51"/><path d="M1746,603L1746,488L1630,500Z" fill="#9190c4" stroke="#9190c4" stroke-width="1.51"/><path d="M1341,-168L161,-174L437,-172Z" fill="#d88862" stroke="#d88862" stroke-width="1.51"/><path d="M437,-172L161,-174L317,-102Z" fill="#cd4636" stroke="#cd4636" stroke-width="1.51"/><path d="M-33,256L-102,382L88,376Z" fill="#d57a52" stroke="#d57a52" stroke-width="1.51"/><path d="M-81,555L-192,555L-70,662Z" fill="#c48384" stroke="#c48384" stroke-width="1.51"/><path d="M-150,343L-102,382L-33,256Z" fill="#d57750" stroke="#d57750" stroke-width="1.51"/><path d="M1485,907L1597,937L1507,764Z" fill="#36419a" stroke="#36419a" stroke-width="1.51"/><path d="M1338,990L1518,1034L1412,947Z" fill="#333a97" stroke="#333a97" stroke-width="1.51"/><path d="M1089,1060L1518,1034L1226,1019Z" fill="#4159a7" stroke="#4159a7" stroke-width="1.51"/><path d="M1518,1034L1597,937L1485,907Z" fill="#313695" stroke="#313695" stroke-width="1.51"/><path d="M-154,883L-58,789L-205,779Z" fill="#8d4a69" stroke="#8d4a69" stroke-width="1.51"/><path d="M-70,662L-58,789L50,652Z" fill="#a86e79" stroke="#a86e79" stroke-width="1.51"/><path d="M56,2L-68,103L92,103Z" fill="#bc1b27" stroke="#bc1b27" stroke-width="1.51"/><path d="M161,-174L70,-110L240,-12Z" fill="#bf2128" stroke="#bf2128" stroke-width="1.51"/><path d="M1765,225L1615,149L1629,268Z" fill="#a55b76" stroke="#a55b76" stroke-width="1.51"/><path d="M1746,603L1630,500L1649,612Z" fill="#858bc4" stroke="#858bc4" stroke-width="1.51"/><path d="M-74,5L-68,103L56,2Z" fill="#af0d27" stroke="#af0d27" stroke-width="1.51"/><path d="M74,928L65,1076L193,1018Z" fill="#93305f" stroke="#93305f" stroke-width="1.51"/><path d="M-58,789L-43,877L84,758Z" fill="#8f4e6a" stroke="#8f4e6a" stroke-width="1.51"/><path d="M1754,811L1746,603L1657,762Z" fill="#566fb2" stroke="#566fb2" stroke-width="1.51"/><path d="M1657,762L1746,603L1649,612Z" fill="#6b7ebb" stroke="#6b7ebb" stroke-width="1.51"/><path d="M1615,149L1668,30L1542,81Z" fill="#983360" stroke="#983360" stroke-width="1.51"/><path d="M1765,225L1629,268L1664,352Z" fill="#a77183" stroke="#a77183" stroke-width="1.51"/><path d="M-183,219L-150,343L-33,256Z" fill="#d36743" stroke="#d36743" stroke-width="1.51"/><path d="M-102,382L-192,555L-81,555Z" fill="#d58d7b" stroke="#d58d7b" stroke-width="1.51"/><path d="M-58,789L-154,883L-43,877Z" fill="#883d64" stroke="#883d64" stroke-width="1.51"/><path d="M-92,1013L65,1076L74,928Z" fill="#82275d" stroke="#82275d" stroke-width="1.51"/><path d="M193,1018L65,1076L374,1041Z" fill="#9f4168" stroke="#9f4168" stroke-width="1.51"/><path d="M374,1041L65,1076L675,1069Z" fill="#a6617a" stroke="#a6617a" stroke-width="1.51"/><path d="M1800,403L1664,352L1746,488Z" fill="#a38fa4" stroke="#a38fa4" stroke-width="1.51"/><path d="M1800,403L1765,225L1664,352Z" fill="#a67d8f" stroke="#a67d8f" stroke-width="1.51"/><path d="M-25,-136L-74,5L56,2Z" fill="#a50026" stroke="#a50026" stroke-width="1.51"/><path d="M-68,103L-183,219L-33,256Z" fill="#cd4736" stroke="#cd4736" stroke-width="1.51"/><path d="M1746,603L1800,403L1746,488Z" fill="#9891bb" stroke="#9891bb" stroke-width="1.51"/><path d="M-150,343L-192,555L-102,382Z" fill="#d98c68" stroke="#d98c68" stroke-width="1.51"/><path d="M1597,937L1754,811L1657,762Z" fill="#3a4ca0" stroke="#3a4ca0" stroke-width="1.51"/><path d="M1746,603L1795,892L1800,403Z" fill="#7384bf" stroke="#7384bf" stroke-width="1.51"/><path d="M1795,892L1754,811L1597,937Z" fill="#343d99" stroke="#343d99" stroke-width="1.51"/><path d="M1765,225L1766,131L1615,149Z" fill="#a34b6e" stroke="#a34b6e" stroke-width="1.51"/><path d="M1800,403L1766,131L1765,225Z" fill="#a6687d" stroke="#a6687d" stroke-width="1.51"/><path d="M-150,343L-183,219L-192,555Z" fill="#d7825a" stroke="#d7825a" stroke-width="1.51"/><path d="M-175,91L-183,219L-68,103Z" fill="#c6322e" stroke="#c6322e" stroke-width="1.51"/><path d="M-74,5L-175,91L-68,103Z" fill="#b71627" stroke="#b71627" stroke-width="1.51"/><path d="M70,-110L-25,-136L56,2Z" fill="#ab0727" stroke="#ab0727" stroke-width="1.51"/><path d="M161,-174L-25,-136L70,-110Z" fill="#b11027" stroke="#b11027" stroke-width="1.51"/><path d="M1518,1034L1652,1065L1597,937Z" fill="#313695" stroke="#313695" stroke-width="1.51"/><path d="M1089,1060L1652,1065L1518,1034Z" fill="#333b97" stroke="#333b97" stroke-width="1.51"/><path d="M675,1069L1652,1065L1089,1060Z" fill="#5a72b4" stroke="#5a72b4" stroke-width="1.51"/><path d="M65,1076L1652,1065L675,1069Z" fill="#9891bb" stroke="#9891bb" stroke-width="1.51"/><path d="M-166,5L-175,91L-74,5Z" fill="#ae0d27" stroke="#ae0d27" stroke-width="1.51"/><path d="M-205,779L-58,789L-70,662Z" fill="#9e6273" stroke="#9e6273" stroke-width="1.51"/><path d="M-43,877L-92,1013L74,928Z" fill="#80265d" stroke="#80265d" stroke-width="1.51"/><path d="M-192,555L-221,683L-70,662Z" fill="#ba7e80" stroke="#ba7e80" stroke-width="1.51"/><path d="M-183,219L-221,683L-192,555Z" fill="#d68d78" stroke="#d68d78" stroke-width="1.51"/><path d="M-198,-146L-221,683L-183,219Z" fill="#d1603f" stroke="#d1603f" stroke-width="1.51"/><path d="M1766,131L1745,-19L1668,30Z" fill="#8d2d5f" stroke="#8d2d5f" stroke-width="1.51"/><path d="M1668,30L1664,-161L1523,-27Z" fill="#80265d" stroke="#80265d" stroke-width="1.51"/><path d="M1496,-105L1664,-161L1341,-168Z" fill="#80265d" stroke="#80265d" stroke-width="1.51"/><path d="M-154,883L-92,1013L-43,877Z" fill="#80265d" stroke="#80265d" stroke-width="1.51"/><path d="M1745,-19L1664,-161L1668,30Z" fill="#80265d" stroke="#80265d" stroke-width="1.51"/><path d="M-154,883L-178,1022L-92,1013Z" fill="#80265d" stroke="#80265d" stroke-width="1.51"/><path d="M-221,683L-205,779L-70,662Z" fill="#a76d78" stroke="#a76d78" stroke-width="1.51"/><path d="M-198,-146L-166,5L-74,5Z" fill="#a50026" stroke="#a50026" stroke-width="1.51"/><path d="M1652,1065L1795,892L1597,937Z" fill="#313695" stroke="#313695" stroke-width="1.51"/><path d="M1754,811L1795,892L1746,603Z" fill="#4a61ab" stroke="#4a61ab" stroke-width="1.51"/><path d="M-92,1013L-178,1022L65,1076Z" fill="#80265d" stroke="#80265d" stroke-width="1.51"/><path d="M-205,779L-178,1022L-154,883Z" fill="#81295e" stroke="#81295e" stroke-width="1.51"/><path d="M-221,683L-178,1022L-205,779Z" fill="#8b4667" stroke="#8b4667" stroke-width="1.51"/><path d="M1652,1065L1799,1054L1795,892Z" fill="#313695" stroke="#313695" stroke-width="1.51"/><path d="M1795,892L1799,1054L1800,403Z" fill="#455da9" stroke="#455da9" stroke-width="1.51"/><path d="M1745,-19L1801,-150L1664,-161Z" fill="#80265d" stroke="#80265d" stroke-width="1.51"/><path d="M1766,131L1801,-150L1745,-19Z" fill="#80265d" stroke="#80265d" stroke-width="1.51"/><path d="M1800,403L1801,-150L1766,131Z" fill="#9e4067" stroke="#9e4067" stroke-width="1.51"/><path d="M1799,1054L1801,-150L1800,403Z" fill="#a292a9" stroke="#a292a9" stroke-width="1.51"/><path d="M-25,-136L-198,-146L-74,5Z" fill="#a50026" stroke="#a50026" stroke-width="1.51"/><path d="M-166,5L-198,-146L-175,91Z" fill="#a50026" stroke="#a50026" stroke-width="1.51"/><path d="M-175,91L-198,-146L-183,219Z" fill="#b41327" stroke="#b41327" stroke-width="1.51"/><path d="M161,-174L-198,-146L-25,-136Z" fill="#a50026" stroke="#a50026" stroke-width="1.51"/></svg>